<svg xmlns="http://www.w3.org/2000/svg" width="12" height="20" viewBox="0 0 12 20" fill="none">
<path d="M11.8251 17.7343L10.5366 14.6444C10.2593 13.9843 9.90085 13.5038 9.28198 13.7968L8.06117 14.3202C7.08384 14.8436 6.59687 14.3202 6.10651 13.5311L3.90837 7.7538C3.63107 7.09364 3.77648 6.47255 4.39534 6.17958L6.10313 5.39052C6.72199 5.09364 6.62392 4.47646 6.34662 3.8163L4.88232 0.667863C4.60501 0.00770688 4.03688 -0.152449 3.41802 0.140519C2.18029 0.730363 1.15562 1.65614 0.489413 3.02724C-0.322209 4.70302 0.0836017 7.03505 0.245926 8.01552C0.408251 8.99599 0.976386 10.7147 1.71023 12.4765C2.44407 14.2421 3.0866 15.6288 3.66488 16.414C4.23978 17.1991 5.61954 19.3475 7.32733 19.828C8.72738 20.2186 10.239 19.8905 11.4767 19.3007C12.099 19.0194 12.099 18.3983 11.8251 17.7343Z" fill="#0B0E1D"/>
</svg>