<svg xmlns="http://www.w3.org/2000/svg" width="14" height="20" viewBox="0 0 14 20" fill="none">
<path d="M13.668 17.7266L12.1797 14.6367C11.8594 13.9766 11.4453 13.4961 10.7305 13.7891L9.32032 14.3125C8.19142 14.836 7.62892 14.3125 7.06251 13.5235L4.52345 7.74611C4.20314 7.08595 4.3711 6.46486 5.08595 6.17189L7.0586 5.38283C7.77345 5.08595 7.66017 4.46877 7.33985 3.80861L5.64845 0.660173C5.32814 1.645e-05 4.67189 -0.16014 3.95704 0.132829C2.52735 0.722673 1.34376 1.64845 0.574229 3.01955C-0.363271 4.69533 0.105479 7.02736 0.292979 8.00783C0.480479 8.9883 1.13673 10.707 1.98439 12.4688C2.83204 14.2344 3.57423 15.6211 4.2422 16.4063C4.90626 17.1914 6.50001 19.3399 8.47267 19.8203C10.0899 20.211 11.8359 19.8828 13.2656 19.293C13.9844 19.0117 13.9844 18.3906 13.668 17.7266Z" fill="white"/>
</svg>