<svg xmlns="http://www.w3.org/2000/svg" width="24" height="24" viewBox="0 0 24 24" fill="none">
<path d="M8.29091 24L6.21818 20.3429L2.29091 19.4286L2.67273 15.2L0 12L2.67273 8.8L2.29091 4.57143L6.21818 3.65714L8.29091 0L12 1.65714L15.7091 0L17.7818 3.65714L21.7091 4.57143L21.3273 8.8L24 12L21.3273 15.2L21.7091 19.4286L17.7818 20.3429L15.7091 24L12 22.3429L8.29091 24ZM9.21818 21.0857L12 19.8286L14.8364 21.0857L16.3636 18.3429L19.3636 17.6L19.0909 14.4L21.1091 12L19.0909 9.54286L19.3636 6.34286L16.3636 5.65714L14.7818 2.91429L12 4.17143L9.16364 2.91429L7.63636 5.65714L4.63636 6.34286L4.90909 9.54286L2.89091 12L4.90909 14.4L4.63636 17.6571L7.63636 18.3429L9.21818 21.0857ZM10.8545 16.0571L17.0182 9.6L15.4909 7.94286L10.8545 12.8L8.50909 10.4L6.98182 12L10.8545 16.0571Z" fill="black"/>
</svg>
