<svg xmlns="http://www.w3.org/2000/svg" width="32" height="32" viewBox="0 0 32 32" fill="none">
<path d="M9.6 11.2V8H24V11.2H9.6ZM9.6 16V12.8H24V16H9.6ZM14.4 32H4.8C3.46667 32 2.33333 31.5333 1.4 30.6C0.466667 29.6667 0 28.5333 0 27.2V22.4H4.8V0H28.8V14.44C28.2667 14.3867 27.7267 14.4067 27.1802 14.5002C26.6334 14.5934 26.1067 14.76 25.6 15V3.2H8V22.4H17.6L14.4 25.6H3.2V27.2C3.2 27.6533 3.35339 28.0334 3.66016 28.3402C3.96672 28.6467 4.34667 28.8 4.8 28.8H14.4V32ZM17.6 32V27.08L26.44 18.28C26.68 18.04 26.9467 17.8667 27.24 17.76C27.5333 17.6533 27.8267 17.6 28.12 17.6C28.44 17.6 28.7467 17.6601 29.04 17.7802C29.3333 17.9001 29.6 18.08 29.84 18.32L31.32 19.8C31.5333 20.04 31.7001 20.3067 31.8202 20.6C31.9401 20.8933 32 21.1867 32 21.48C32 21.7733 31.9467 22.0734 31.84 22.3802C31.7333 22.6867 31.56 22.96 31.32 23.2L22.52 32H17.6ZM20 29.6H21.52L26.36 24.72L25.64 23.96L24.88 23.24L20 28.08V29.6ZM25.64 23.96L24.88 23.24L26.36 24.72L25.64 23.96Z" fill="white"/>
</svg>
