<svg xmlns="http://www.w3.org/2000/svg" width="32" height="30" viewBox="0 0 32 30" fill="none">
<path d="M16 29.36L13.68 27.28C10.9867 24.8533 8.76 22.76 7 21C5.24 19.24 3.84 17.6601 2.8 16.2602C1.76 14.8601 1.03339 13.5733 0.62016 12.4C0.20672 11.2267 0 10.0267 0 8.8C0 6.29333 0.84 4.2 2.52 2.52C4.2 0.84 6.29333 0 8.8 0C10.1867 0 11.5067 0.293333 12.76 0.88C14.0133 1.46667 15.0933 2.29333 16 3.36C16.9067 2.29333 17.9867 1.46667 19.24 0.88C20.4933 0.293333 21.8133 0 23.2 0C25.7067 0 27.8 0.84 29.48 2.52C31.16 4.2 32 6.29333 32 8.8C32 10.0267 31.7933 11.2267 31.3798 12.4C30.9666 13.5733 30.24 14.8601 29.2 16.2602C28.16 17.6601 26.76 19.24 25 21C23.24 22.76 21.0133 24.8533 18.32 27.28L16 29.36ZM16 25.04C18.56 22.7467 20.6667 20.7801 22.32 19.1402C23.9733 17.5001 25.28 16.0734 26.24 14.8602C27.2 13.6467 27.8667 12.5667 28.24 11.6202C28.6133 10.6734 28.8 9.73333 28.8 8.8C28.8 7.2 28.2667 5.86667 27.2 4.8C26.1333 3.73333 24.8 3.2 23.2 3.2C21.9467 3.2 20.7867 3.55339 19.72 4.26016C18.6533 4.96672 17.92 5.86667 17.52 6.96H14.48C14.08 5.86667 13.3467 4.96672 12.28 4.26016C11.2133 3.55339 10.0533 3.2 8.8 3.2C7.2 3.2 5.86667 3.73333 4.8 4.8C3.73333 5.86667 3.2 7.2 3.2 8.8C3.2 9.73333 3.38667 10.6734 3.76 11.6202C4.13333 12.5667 4.8 13.6467 5.76 14.8602C6.72 16.0734 8.02667 17.5001 9.68 19.1402C11.3333 20.7801 13.44 22.7467 16 25.04Z" fill="white"/>
</svg>
