<svg xmlns="http://www.w3.org/2000/svg" width="32" height="32" viewBox="0 0 32 32" fill="none">
<path d="M11.32 19.6L16 16.76L20.68 19.6L19.44 14.28L23.6 10.68L18.12 10.24L16 5.2L13.88 10.24L8.4 10.68L12.56 14.28L11.32 19.6ZM0 32V3.2C0 2.32 0.313387 1.56672 0.94016 0.940161C1.56672 0.313388 2.32 0 3.2 0H28.8C29.68 0 30.4333 0.313388 31.0598 0.940161C31.6866 1.56672 32 2.32 32 3.2V22.4C32 23.28 31.6866 24.0334 31.0598 24.6602C30.4333 25.2867 29.68 25.6 28.8 25.6H6.4L0 32ZM5.04 22.4H28.8V3.2H3.2V24.2L5.04 22.4Z" fill="white"/>
</svg>