<svg width="32" height="32" viewBox="0 0 32 32" fill="none" xmlns="http://www.w3.org/2000/svg">
<g id="Group 43">
<circle id="Ellipse 12" cx="16" cy="16" r="16" fill="#F34747"/>
<path id="Vector" d="M21.8251 23.7343L20.5366 20.6444C20.2593 19.9843 19.9008 19.5038 19.282 19.7968L18.0612 20.3202C17.0838 20.8436 16.5969 20.3202 16.1065 19.5311L13.9084 13.7538C13.6311 13.0936 13.7765 12.4725 14.3953 12.1796L16.1031 11.3905C16.722 11.0936 16.6239 10.4765 16.3466 9.8163L14.8823 6.66786C14.605 6.00771 14.0369 5.84755 13.418 6.14052C12.1803 6.73036 11.1556 7.65614 10.4894 9.02724C9.67779 10.703 10.0836 13.035 10.2459 14.0155C10.4083 14.996 10.9764 16.7147 11.7102 18.4765C12.4441 20.2421 13.0866 21.6288 13.6649 22.414C14.2398 23.1991 15.6195 25.3475 17.3273 25.828C18.7274 26.2186 20.239 25.8905 21.4767 25.3007C22.099 25.0194 22.099 24.3983 21.8251 23.7343Z" fill="white"/>
</g>
</svg>
