<svg width="32" height="32" viewBox="0 0 32 32" fill="none" xmlns="http://www.w3.org/2000/svg">
<g id="Group 42">
<circle id="Ellipse 11" cx="16" cy="16" r="16" fill="#F34747"/>
<g id="ph:map-pin-fill">
<path id="Vector" d="M16 5.5C13.8127 5.50248 11.7157 6.37247 10.1691 7.91911C8.62247 9.46575 7.75248 11.5627 7.75 13.75C7.75 20.8094 15.25 26.1409 15.5697 26.3641C15.6958 26.4524 15.846 26.4998 16 26.4998C16.154 26.4998 16.3042 26.4524 16.4303 26.3641C16.75 26.1409 24.25 20.8094 24.25 13.75C24.2475 11.5627 23.3775 9.46575 21.8309 7.91911C20.2843 6.37247 18.1873 5.50248 16 5.5ZM16 10.75C16.5933 10.75 17.1734 10.9259 17.6667 11.2556C18.1601 11.5852 18.5446 12.0538 18.7716 12.6019C18.9987 13.1501 19.0581 13.7533 18.9424 14.3353C18.8266 14.9172 18.5409 15.4518 18.1213 15.8713C17.7018 16.2909 17.1672 16.5766 16.5853 16.6924C16.0033 16.8081 15.4001 16.7487 14.8519 16.5216C14.3038 16.2946 13.8352 15.9101 13.5056 15.4167C13.1759 14.9234 13 14.3433 13 13.75C13 12.9544 13.3161 12.1913 13.8787 11.6287C14.4413 11.0661 15.2044 10.75 16 10.75Z" fill="white"/>
</g>
</g>
</svg>
